<svg width="16" height="16" viewBox="0 0 16 16" fill="none" xmlns="http://www.w3.org/2000/svg">
<path d="M9.5 4.5C9.5 5.60457 10.3954 6.5 11.5 6.5H14.5C15.3284 6.5 16 7.17157 16 8C16 8.82843 15.3284 9.5 14.5 9.5H11.5C10.3954 9.5 9.5 10.3954 9.5 11.5V14.5C9.5 15.3284 8.82843 16 8 16C7.17157 16 6.5 15.3284 6.5 14.5V11.5C6.5 10.3954 5.60457 9.5 4.5 9.5H1.5C0.671573 9.5 0 8.82843 0 8C0 7.17157 0.671573 6.5 1.5 6.5H4.5C5.60457 6.5 6.5 5.60457 6.5 4.5V1.5C6.5 0.671573 7.17157 0 8 0C8.82843 0 9.5 0.671573 9.5 1.5V4.5Z" fill="black"/>
</svg>
