<svg width="19" height="26" viewBox="0 0 19 26" fill="none" xmlns="http://www.w3.org/2000/svg">
<path d="M9.1601 25.1431C7.48049 25.1767 5.76729 25.0927 4.08769 24.7232C3.34866 24.5553 2.64323 24.3201 1.98818 23.9674C0.0398397 22.9261 -0.548023 20.9273 0.543721 19.0126C1.21556 17.8368 2.22333 17.0138 3.39905 16.3924C5.09545 15.4854 6.90943 15.0655 8.82418 15.0151C10.7725 14.9647 12.6705 15.2671 14.4509 16.0733C15.8953 16.7283 17.1718 17.6185 17.9612 19.0462C18.5995 20.2219 18.7506 21.4312 18.0452 22.6405C17.5749 23.4803 16.7687 23.9338 15.9121 24.2697C14.854 24.6896 13.7454 24.8744 12.6201 25.0088C11.4947 25.1263 10.3358 25.1599 9.1601 25.1431Z" fill="black"/>
<path d="M9.26213 0C12.6717 0 15.4263 2.75455 15.4263 6.14736C15.4263 9.54016 12.6549 12.3451 9.27893 12.3283C5.65098 12.2947 3.06439 9.3722 3.09798 6.11376C3.11478 2.73776 5.86933 0 9.26213 0Z" fill="black"/>
</svg>
