<svg width="20" height="19" viewBox="0 0 20 19" fill="none" xmlns="http://www.w3.org/2000/svg">
<path d="M10.0444 18.6316C8.12065 18.6316 6.20375 18.6385 4.28004 18.6316C2.85431 18.6248 1.79695 17.9904 1.17617 16.6875C0.964701 16.2372 0.903306 15.7529 0.896484 15.2617C0.896484 12.8127 0.896484 10.3706 0.896484 7.92841C0.896484 6.65958 1.41493 5.68408 2.47229 4.9678C4.34826 3.70579 6.20375 2.41649 8.07289 1.14084C9.40994 0.226733 10.7402 0.25402 12.0704 1.16813C13.9191 2.4506 15.7746 3.71943 17.6437 4.98145C18.667 5.67726 19.1854 6.62547 19.1922 7.85337C19.1991 10.3296 19.2059 12.8127 19.1922 15.289C19.1786 16.8648 18.2713 18.0791 16.8251 18.502C16.4772 18.6043 16.1088 18.6316 15.7473 18.6316C13.844 18.6385 11.9408 18.6385 10.0444 18.6316ZM10.058 15.3436C10.7743 15.3436 11.4906 15.3504 12.2 15.3436C12.5343 15.3436 12.7457 15.1799 12.7185 14.9411C12.6912 14.6273 12.4729 14.5454 12.1864 14.5454C10.7538 14.5454 9.32808 14.5454 7.89553 14.5454C7.61584 14.5454 7.39073 14.6273 7.35662 14.9343C7.32933 15.1867 7.54762 15.3436 7.90235 15.3436C8.62545 15.3504 9.34173 15.3504 10.058 15.3436Z" fill="white"/>
</svg>
