<svg width="16" height="20" viewBox="0 0 16 20" fill="none" xmlns="http://www.w3.org/2000/svg">
<path d="M8.12546 6.25842C10.1056 6.25842 12.0857 6.25842 14.0659 6.25842C14.8249 6.25842 15.1632 6.5967 15.0972 7.35575C14.9569 8.97287 14.7837 10.5817 14.6269 12.1906C14.4784 13.7912 14.3299 15.3918 14.1814 16.9924C14.1484 17.306 14.1319 17.6277 14.0741 17.933C13.8679 19.0881 12.9025 19.9214 11.731 19.9296C9.33829 19.9379 6.94562 19.9379 4.55295 19.9296C3.29886 19.9214 2.30054 19.0056 2.16853 17.7515C2.02002 16.3571 1.89627 14.9628 1.76426 13.5684C1.57449 11.5718 1.37648 9.57516 1.18672 7.58677C1.17846 7.47951 1.17021 7.364 1.17021 7.25674C1.14546 6.6297 1.48374 6.26667 2.10253 6.26667C4.10742 6.25842 6.11231 6.25842 8.12546 6.25842ZM6.89612 16.4066C6.91262 15.9116 6.81361 15.4166 6.78886 14.9298C6.6981 13.3952 6.59085 11.8606 6.50009 10.326C6.47534 9.93818 6.48359 9.55866 6.44234 9.17088C6.39283 8.68409 5.99681 8.35407 5.58428 8.40357C5.147 8.46133 4.84997 8.85736 4.88298 9.31939C4.99023 10.9118 5.08924 12.4959 5.18825 14.0882C5.246 15.0453 5.29551 16.0106 5.36151 16.9677C5.39451 17.4462 5.76579 17.8092 6.17832 17.7845C6.60735 17.7597 6.88787 17.438 6.89612 16.9347C6.89612 16.7697 6.89612 16.5882 6.89612 16.4066ZM9.38779 16.3654C9.37954 16.3654 9.37954 16.3654 9.37129 16.3654C9.37129 16.5469 9.37129 16.7202 9.37129 16.9017C9.37129 17.438 9.63531 17.768 10.0808 17.7927C10.5099 17.8175 10.8729 17.4545 10.9059 16.9347C11.0049 15.4001 11.0874 13.8655 11.1782 12.3309C11.2359 11.3573 11.3019 10.3837 11.3762 9.41015C11.4174 8.87386 11.1617 8.46958 10.6914 8.40357C10.2459 8.34582 9.85808 8.70885 9.81683 9.24513C9.66831 11.6213 9.52806 13.9892 9.38779 16.3654Z" fill="#010205"/>
<path d="M8.12429 5.49127C5.85538 5.49127 3.58646 5.49127 1.31755 5.49127C0.533749 5.49127 0.261479 5.21075 0.261479 4.4187C0.261479 4.10518 0.253229 3.7834 0.261479 3.46988C0.26973 2.86759 0.575002 2.55407 1.17729 2.54582C2.23337 2.53757 3.29769 2.52931 4.35377 2.54582C4.69204 2.55407 4.80755 2.45506 4.80755 2.10854C4.82405 0.945203 5.72337 0.0788916 6.89495 0.0706411C7.72001 0.0623905 8.54506 0.0623905 9.37012 0.0706411C10.5417 0.0788916 11.4328 0.945203 11.4493 2.11679C11.4493 2.47156 11.5813 2.55407 11.9113 2.55407C12.9261 2.53757 13.9492 2.54582 14.964 2.54582C15.7066 2.54582 15.9953 2.83459 15.9953 3.56064C15.9953 3.89066 16.0036 4.22068 15.9953 4.55071C15.9871 5.17775 15.6818 5.49127 15.0548 5.49127C12.7446 5.49952 10.4344 5.49127 8.12429 5.49127ZM8.13254 2.54582C8.56157 2.54582 8.98235 2.55407 9.41138 2.54582C9.7579 2.53757 9.84866 2.3808 9.7084 2.06728C9.60114 1.82802 9.39488 1.77851 9.16386 1.78676C8.54506 1.78676 7.92627 1.78676 7.31573 1.78676C7.17547 1.78676 7.03521 1.77851 6.9032 1.80326C6.63093 1.86102 6.51542 2.04253 6.52367 2.30655C6.53192 2.62007 6.77119 2.53757 6.94445 2.54582C7.33223 2.55407 7.73651 2.54582 8.13254 2.54582Z" fill="#010205"/>
</svg>
