<svg width="19" height="19" viewBox="0 0 19 19" fill="none" xmlns="http://www.w3.org/2000/svg">
<path d="M9.5332 15.8976C7.69801 15.8976 5.86282 15.8976 4.02764 15.8976C3.5338 15.8976 3.04664 15.8637 2.81307 15.327C2.57951 14.7768 2.82642 14.3421 3.24685 14.0296C4.00761 13.459 4.24118 12.7322 4.17445 11.7744C4.09437 10.5721 4.11439 9.34937 4.16778 8.14025C4.25453 6.21788 4.98861 4.61478 6.60357 3.50755C6.94392 3.2698 7.31763 3.0796 7.71803 2.9845C8.08507 2.89619 8.1785 2.6992 8.16515 2.33918C8.14513 1.55801 8.5789 1.01458 9.28628 0.885521C10.0737 0.736079 10.8479 1.36781 10.8746 2.18295C10.8812 2.29843 10.8879 2.40711 10.8746 2.52259C10.8479 2.75355 10.948 2.86223 11.1682 2.93016C13.1836 3.59585 14.2913 5.0631 14.7451 7.11453C14.8653 7.66475 14.8786 8.21497 14.8786 8.76519C14.8786 10.0898 14.8853 11.4144 14.8719 12.739C14.8719 12.9835 14.932 13.1737 15.1122 13.3367C15.3925 13.5949 15.646 13.8802 15.913 14.1519C16.2333 14.4711 16.3868 14.838 16.2133 15.2863C16.0331 15.7482 15.6527 15.8976 15.1922 15.8976C14.0778 15.8976 12.97 15.8976 11.8555 15.8976C11.0948 15.8976 10.314 15.8976 9.5332 15.8976Z" fill="white"/>
<path d="M1.65866 8.16741C1.0714 8.17421 0.624277 7.69192 0.717705 7.10773C1.05805 4.92045 2.03904 3.0728 3.64733 1.57838C4.04106 1.21157 4.62165 1.25233 4.96199 1.63273C5.30234 2.01312 5.28899 2.54976 4.88859 2.93695C3.91427 3.90153 3.18687 5.01555 2.79981 6.35373C2.69303 6.71375 2.63297 7.08056 2.53955 7.44058C2.4261 7.88891 2.09243 8.16062 1.65866 8.16741Z" fill="white"/>
<path d="M14.8117 1.32672C15.0586 1.31992 15.2655 1.42861 15.439 1.59164C17.0073 3.07926 17.9616 4.89974 18.3152 7.04627C18.402 7.56931 18.0817 8.04481 17.5945 8.13991C17.074 8.2418 16.6069 7.94292 16.5068 7.3927C16.1931 5.62657 15.4056 4.13215 14.1377 2.89586C13.8441 2.61056 13.7707 2.25733 13.9308 1.87014C14.0776 1.5305 14.418 1.31992 14.8117 1.32672Z" fill="white"/>
<path d="M9.52584 16.6993C10.013 16.6993 10.5002 16.706 10.9873 16.6993C11.2809 16.6925 11.3477 16.8079 11.2943 17.0932C11.1341 17.9559 10.36 18.6216 9.49915 18.608C8.61826 18.5945 7.87083 17.9423 7.71735 17.0729C7.67063 16.8011 7.75739 16.6993 8.02432 16.6993C8.5315 16.6993 9.03201 16.6993 9.52584 16.6993Z" fill="white"/>
</svg>
