<svg width="16" height="22" viewBox="0 0 16 22" fill="none" xmlns="http://www.w3.org/2000/svg">
<path d="M15.464 12.5819C15.464 14.6154 15.4706 16.6488 15.464 18.6823C15.4574 19.9467 14.8114 20.9671 13.7699 21.359C13.4535 21.4773 13.1239 21.5069 12.7943 21.5069C9.41944 21.5069 6.05111 21.5143 2.6762 21.5069C1.02829 21.5069 0 20.346 0 18.5048C0 13.3805 0 8.25624 0 3.12457C0 1.78619 0.613021 0.780564 1.66768 0.359087C1.99067 0.233383 2.33344 0.203805 2.6762 0.196411C5.036 0.196411 7.4024 0.203805 9.7622 0.196411C10.3686 0.196411 10.863 0.418241 11.2915 0.906268C12.4648 2.24464 13.6447 3.56823 14.8312 4.87703C15.2662 5.35766 15.4706 5.90484 15.464 6.59252C15.4574 8.58899 15.464 10.5855 15.464 12.5819ZM7.73198 10.5485C8.47024 10.5485 9.20191 10.5485 9.94018 10.5485C10.3818 10.5485 10.8169 10.5559 11.2585 10.5411C11.6276 10.5263 11.8649 10.2453 11.8649 9.86821C11.8649 9.4911 11.621 9.21011 11.2651 9.18054C11.186 9.17314 11.1135 9.17314 11.0344 9.17314C8.83937 9.17314 6.64436 9.17314 4.44935 9.17314C4.3307 9.17314 4.20546 9.16575 4.08681 9.19532C3.67813 9.29885 3.48038 9.80906 3.69131 10.2084C3.83633 10.4893 4.07363 10.5485 4.34388 10.5485C5.47105 10.5485 6.59822 10.5485 7.73198 10.5485ZM7.77153 12.6337C6.78278 12.6337 5.79404 12.6337 4.81189 12.6337C4.60096 12.6337 4.39662 12.6263 4.18568 12.6411C3.84292 12.6707 3.61221 12.9443 3.61221 13.314C3.61221 13.6615 3.82974 13.9425 4.14613 13.9943C4.24501 14.009 4.34388 14.009 4.44276 14.009C6.63777 14.009 8.83278 14.009 11.0278 14.009C11.1596 14.009 11.2915 14.009 11.4167 13.9721C11.7001 13.8907 11.8781 13.6024 11.8649 13.2844C11.8517 12.9443 11.6342 12.6855 11.331 12.6485C11.2124 12.6337 11.0871 12.6337 10.9685 12.6337C9.89403 12.6337 8.83278 12.6337 7.77153 12.6337ZM13.5919 6.38548C12.3989 5.0471 11.1794 3.67915 9.97972 2.32598C9.97972 3.29464 9.97313 4.33724 9.97972 5.37984C9.98632 5.97139 10.2763 6.3559 10.7971 6.37069C11.7661 6.40766 12.7284 6.38548 13.5919 6.38548ZM6.18295 17.4844C6.80915 17.4844 7.43536 17.4918 8.06156 17.4844C8.56252 17.477 8.85915 17.0851 8.76027 16.6119C8.68777 16.2717 8.43069 16.0647 8.0286 16.0647C6.80915 16.0573 5.5897 16.0573 4.37684 16.0647C3.90884 16.0647 3.61221 16.353 3.61221 16.7745C3.61221 17.196 3.91543 17.4844 4.37684 17.4844C4.97668 17.4844 5.58311 17.4844 6.18295 17.4844Z" fill="white"/>
</svg>
