<svg width="18" height="19" viewBox="0 0 18 19" fill="none" xmlns="http://www.w3.org/2000/svg">
<path d="M8.98165 0.139515C10.1196 0.139515 11.2575 0.139515 12.4015 0.139515C13.2004 0.139515 13.8178 0.499379 14.2234 1.2938C15.3916 3.56841 16.5719 5.82944 17.74 8.10405C18.1274 8.85773 18.0608 9.6114 17.6795 10.3583C16.6808 12.2866 15.6942 14.2149 14.6955 16.1433C14.52 16.4828 14.3444 16.8291 14.1628 17.1685C13.7936 17.8611 13.2307 18.2006 12.5286 18.2074C10.168 18.221 7.80741 18.2278 5.45288 18.2074C4.70233 18.2006 4.13942 17.7932 3.7581 17.0463C2.6928 14.9686 1.61541 12.9045 0.544064 10.8268C0.314058 10.3787 0.0356297 9.95769 0.00536574 9.40771C-0.0188454 8.96637 0.0356297 8.55218 0.235372 8.16516C1.42777 5.84302 2.62017 3.52088 3.81862 1.20553C4.18784 0.485799 4.77496 0.153095 5.5013 0.146305C6.66343 0.132725 7.81952 0.139515 8.98165 0.139515ZM8.98165 12.5446C10.7491 12.4699 11.9778 11.0305 11.9838 9.12932C11.9959 7.33 10.6038 5.81586 9.01797 5.80907C7.36556 5.80228 5.9492 7.35716 5.99763 9.20401C6.0521 11.1323 7.31713 12.4632 8.98165 12.5446Z" fill="white"/>
</svg>
