<svg width="476" height="425" viewBox="0 0 476 425" fill="none" xmlns="http://www.w3.org/2000/svg">
<path d="M130.9 2.49999C122.5 4.79999 116.6 8.39999 109.6 15.5C103.1 22 99.3002 28.2 54.2002 106.5C27.5002 152.7 4.90018 192.6 3.90018 195.1C-0.499818 206.5 -0.599818 220.4 3.60018 231C4.50018 233.2 27.2002 272.9 54.0002 319.2C106.9 410.6 108.2 412.6 120.1 419C131.8 425.2 126.9 425 238 425C349.1 425 344.2 425.2 355.9 419C367.8 412.6 369.1 410.7 421.8 319.5C448.5 273.3 471.1 233.4 472.1 230.9C477.2 217.9 476.6 204.1 470.6 191.5C468.7 187.6 446.1 148 420.3 103.5C376.7 28.3 372.9 22 366.4 15.5C359.2 8.19999 353.5 4.69999 344.7 2.39999C337.4 0.499994 137.9 0.499994 130.9 2.49999ZM257 135.9C280.3 141.9 298.4 156.8 309 178.5C314.9 190.8 317 199.7 317 213.3C317 244 299.6 271.3 271.5 284.6C260 290 250.8 292 237.7 292C207.6 292 180.7 275.3 167.4 248.5C161.4 236.3 159 226.3 159 213.3C159 199.7 161.1 190.8 167 178.5C175.4 161.3 186.4 150.3 203.5 142C209 139.4 215.8 136.7 218.5 136C229.8 133.2 246.4 133.2 257 135.9Z" fill="white"/>
</svg>
