<svg width="31" height="23" viewBox="0 0 31 23" fill="none" xmlns="http://www.w3.org/2000/svg">
<path d="M25.2453 2.8542C24.5872 2.8542 23.9834 2.8542 23.3796 2.8542C21.7756 2.85326 20.1716 2.86074 18.5676 2.84765C17.9012 2.84205 17.4329 2.50087 17.2375 1.93537C17.0365 1.35304 17.1889 0.743598 17.6441 0.365971C17.9423 0.11827 18.2937 0.00236467 18.6807 0.00236467C21.998 0.00142995 25.3144 -0.00417837 28.6318 0.00610355C29.5749 0.00890772 30.1451 0.599651 30.146 1.53157C30.1497 4.84889 30.1488 8.16528 30.146 11.4826C30.1451 12.4388 29.5814 13.0707 28.7486 13.066C27.9176 13.0613 27.3213 12.4285 27.3147 11.4854C27.3007 9.53932 27.311 7.5923 27.3063 5.64527C27.3054 5.46674 27.3615 5.27512 27.2418 5.1022C27.0437 5.12463 26.9595 5.29101 26.8436 5.40598C24.1956 8.04283 21.5503 10.6834 18.9041 13.3231C18.7499 13.4764 18.5966 13.6343 18.4265 13.7689C17.7339 14.3176 17.045 14.2914 16.4159 13.6745C15.5597 12.8351 14.7063 11.992 13.8753 11.1283C13.6071 10.8498 13.4528 10.8507 13.1762 11.1283C9.6616 14.6607 6.13397 18.1808 2.61194 21.7056C2.28292 22.0347 1.93334 22.2973 1.43793 22.2917C0.851864 22.2852 0.417219 22.0263 0.158301 21.5084C-0.10342 20.9859 -0.0351858 20.4737 0.322812 20.0185C0.543406 19.7381 0.794846 19.4801 1.04816 19.2268C4.70198 15.5692 8.3586 11.9135 12.0143 8.25782C12.0909 8.18117 12.1676 8.10265 12.247 8.02788C13.1977 7.13241 13.8921 7.14083 14.8185 8.06153C15.6018 8.84108 16.3869 9.62064 17.1618 10.4077C17.3553 10.604 17.5095 10.6853 17.7413 10.4525C20.2155 7.97179 22.6963 5.49759 25.1733 3.01964C25.1948 3.00001 25.1995 2.96449 25.2453 2.8542Z" fill="white"/>
</svg>
