<svg width="31" height="29" viewBox="0 0 31 29" fill="none" xmlns="http://www.w3.org/2000/svg">
<path d="M18.9294 24.4558C19.4427 23.1182 19.952 21.7932 20.4612 20.4682C21.3113 18.2556 22.1606 16.043 23.0123 13.8305C23.2177 13.2973 23.5791 12.9933 24.1647 12.995C26.053 13 27.9421 12.9992 29.8304 12.995C30.3544 12.9941 30.7232 13.2318 30.9269 13.7188C31.0862 14.1 30.9778 14.5316 30.6731 14.833C30.4291 15.074 30.1285 15.1294 29.8024 15.1286C28.3109 15.1252 26.8185 15.1429 25.3277 15.1177C24.9088 15.111 24.7027 15.2344 24.545 15.65C22.9934 19.7443 21.4189 23.8286 19.8501 27.9153C19.7951 28.0581 19.7343 28.1991 19.6686 28.3377C19.4649 28.7659 19.1372 29.0145 18.6633 28.9993C18.1951 28.9851 17.837 28.6744 17.699 28.1681C17.1405 26.1209 16.5877 24.0729 16.0358 22.0241C15.0805 18.4789 14.1261 14.9346 13.1734 11.3887C12.6231 9.33982 12.0769 7.28932 11.5282 5.23965C11.4855 5.07927 11.4354 4.92057 11.3541 4.64347C11.0715 5.44285 10.8227 6.13895 10.5795 6.83673C9.7319 9.27433 8.88756 11.7128 8.04074 14.1495C7.76723 14.9372 7.50111 15.1261 6.67073 15.1269C4.80955 15.1278 2.94836 15.1311 1.08718 15.1227C0.547552 15.1202 0.171374 14.8272 0.0366719 14.3502C-0.0873521 13.9102 0.110594 13.4215 0.518805 13.1562C0.750426 13.0059 1.00833 12.9941 1.27034 12.9941C2.74795 12.995 4.22639 12.9824 5.704 13.0025C6.09825 13.0076 6.27566 12.8699 6.4079 12.4853C7.73766 8.62021 9.08714 4.76271 10.4366 0.904359C10.6535 0.284672 11.0543 -0.0318888 11.5298 0.00253829C12.0391 0.0386447 12.3865 0.409785 12.5574 1.04711C13.2539 3.64929 13.9619 6.24895 14.6608 8.85113C15.5019 11.979 16.3389 15.1068 17.1783 18.2346C17.7031 20.1894 18.2271 22.1442 18.7569 24.0973C18.7898 24.2131 18.7947 24.3492 18.9294 24.4558Z" fill="white"/>
</svg>
