<svg width="31" height="26" viewBox="0 0 31 26" fill="none" xmlns="http://www.w3.org/2000/svg">
<path d="M15.3389 25.1436C13.6593 25.1772 11.9461 25.0932 10.2665 24.7237C9.52743 24.5558 8.822 24.3206 8.16695 23.9679C6.21861 22.9265 5.63075 20.9278 6.72249 19.0131C7.39434 17.8373 8.4021 17.0143 9.57782 16.3929C11.2742 15.4859 13.0882 15.066 15.0029 15.0156C16.9513 14.9652 18.8492 15.2675 20.6296 16.0738C22.0741 16.7288 23.3506 17.619 24.14 19.0467C24.7783 20.2224 24.9294 21.4317 24.224 22.641C23.7537 23.4808 22.9475 23.9343 22.0909 24.2702C21.0327 24.6901 19.9242 24.8749 18.7989 25.0093C17.6735 25.1268 16.5146 25.1604 15.3389 25.1436Z" fill="white"/>
<path d="M15.4404 -0.000244141C18.85 -0.000244141 21.6045 2.75431 21.6045 6.14711C21.6045 9.53992 18.8332 12.3449 15.4572 12.3281C11.8292 12.2945 9.24261 9.37195 9.2762 6.11352C9.293 2.73751 12.0476 -0.000244141 15.4404 -0.000244141Z" fill="white"/>
<path d="M23.5692 11.1689C23.0989 11.1857 22.6286 11.0849 22.1751 10.9673C21.9735 10.9002 21.9064 10.833 22.0407 10.6314C22.9309 9.37172 23.3676 7.96085 23.4012 6.43241C23.4516 4.83678 23.0653 3.34194 22.2423 1.98145C22.0239 1.62874 22.0407 1.59515 22.427 1.51117C25.2824 0.839323 28.0705 2.77087 28.44 5.69338C28.8263 8.5823 26.5253 11.1689 23.5692 11.1689Z" fill="white"/>
<path d="M7.32711 11.1692C4.74051 11.1692 2.57382 9.17047 2.38907 6.66786C2.20431 4.04768 4.05188 1.76341 6.62167 1.4107C7.27672 1.32672 7.89817 1.3771 8.53642 1.52827C8.77157 1.57866 8.80516 1.67943 8.67079 1.88098C7.7806 3.29185 7.39429 4.83709 7.46147 6.4999C7.51186 7.96116 7.96536 9.30484 8.77157 10.5477C8.98991 10.8837 8.98991 10.9005 8.60361 11.0012C8.16691 11.1188 7.73021 11.186 7.32711 11.1692Z" fill="white"/>
<path d="M23.6192 12.9155C25.6683 12.9659 27.5998 13.4194 29.2458 14.7295C29.9849 15.3174 30.5727 16.0396 30.7743 16.997C31.043 18.2735 30.5895 19.3148 29.4642 19.9699C28.6244 20.4738 27.6838 20.6921 26.7264 20.8433C26.5081 20.8769 26.4913 20.7593 26.4745 20.5913C26.3569 19.3148 25.8866 18.1727 25.0804 17.1649C23.8375 15.6197 22.2251 14.6455 20.3775 13.9905C20.2096 13.9401 20.0416 13.8897 19.8904 13.8225C19.8233 13.8057 19.7225 13.8057 19.7225 13.7049C19.7225 13.621 19.8232 13.6042 19.8736 13.5874C20.5455 13.3186 21.2341 13.1339 21.9396 13.0163C22.5274 12.9659 23.0649 12.9155 23.6192 12.9155Z" fill="white"/>
<path d="M11.1897 13.7383C10.8538 13.8559 10.5683 13.9567 10.2828 14.0575C8.43519 14.7461 6.80597 15.7707 5.61345 17.3663C4.89122 18.3237 4.45452 19.3986 4.38734 20.5911C4.38734 20.7255 4.37055 20.8767 4.16899 20.8431C3.07725 20.6751 2.0023 20.44 1.09531 19.7681C-0.0132251 18.9451 -0.298758 17.6182 0.322696 16.3081C0.843374 15.25 1.71677 14.5278 2.75812 13.9903C4.45453 13.1001 6.2685 12.7978 8.18325 12.9657C9.05664 13.0497 9.91324 13.2345 10.7362 13.52C10.8706 13.5704 11.0218 13.604 11.1897 13.7383Z" fill="white"/>
</svg>
