<svg width="15" height="11" viewBox="0 0 15 11" fill="none" xmlns="http://www.w3.org/2000/svg">
<path d="M7.521 11C4.26659 11.0026 1.38747 9.17586 0.186109 6.34822C-0.0458544 5.80286 -0.0714743 5.25102 0.168798 4.71147C1.32931 2.10935 3.38928 0.524293 6.37919 0.0868363C10.0047 -0.443669 13.4392 1.50647 14.7853 4.57255C15.0553 5.18835 15.0837 5.79769 14.7957 6.40896C13.5638 9.02272 11.4478 10.5567 8.40523 10.9586C8.11026 10.9968 7.81598 10.9948 7.521 11ZM7.48569 8.42113C9.22715 8.42824 10.639 7.14236 10.6494 5.53986C10.6598 3.96321 9.23892 2.63145 7.53554 2.62176C5.79893 2.61207 4.36491 3.92444 4.35799 5.52823C4.35176 7.10876 5.76224 8.41403 7.48569 8.42113Z" fill="white" fill-opacity="0.2"/>
</svg>
